%TF.GenerationSoftware,KiCad,Pcbnew,(5.1.6)-1*%
%TF.CreationDate,2022-04-26T10:23:00-04:00*%
%TF.ProjectId,rs485_5vreg_tray_short_v2,72733438-355f-4357-9672-65675f747261,v2*%
%TF.SameCoordinates,Original*%
%TF.FileFunction,Legend,Top*%
%TF.FilePolarity,Positive*%
%FSLAX46Y46*%
G04 Gerber Fmt 4.6, Leading zero omitted, Abs format (unit mm)*
G04 Created by KiCad (PCBNEW (5.1.6)-1) date 2022-04-26 10:23:00*
%MOMM*%
%LPD*%
G01*
G04 APERTURE LIST*
%ADD10C,0.120000*%
%ADD11C,0.254000*%
%ADD12C,0.150000*%
%ADD13C,0.010000*%
%ADD14C,0.100000*%
G04 APERTURE END LIST*
D10*
X99927210Y-115316000D02*
G75*
G03*
X99927210Y-115316000I-359210J0D01*
G01*
X127000000Y-120650000D02*
X124460000Y-123190000D01*
X124460000Y-120650000D02*
X127000000Y-123190000D01*
D11*
X64770000Y-102870000D02*
X65405000Y-102235000D01*
X64770000Y-101600000D02*
X65405000Y-102235000D01*
D10*
X65405000Y-102235000D02*
X64770000Y-101600000D01*
D11*
X60960000Y-102235000D02*
X65405000Y-102235000D01*
X66675000Y-123825000D02*
X66040000Y-123190000D01*
X66675000Y-122555000D02*
X66040000Y-123190000D01*
D10*
X66040000Y-123190000D02*
X66675000Y-122555000D01*
D11*
X71120000Y-123190000D02*
X66040000Y-123190000D01*
D12*
X78192380Y-108529285D02*
X78192380Y-107910238D01*
X78573333Y-108243571D01*
X78573333Y-108100714D01*
X78620952Y-108005476D01*
X78668571Y-107957857D01*
X78763809Y-107910238D01*
X79001904Y-107910238D01*
X79097142Y-107957857D01*
X79144761Y-108005476D01*
X79192380Y-108100714D01*
X79192380Y-108386428D01*
X79144761Y-108481666D01*
X79097142Y-108529285D01*
X78192380Y-107624523D02*
X79192380Y-107291190D01*
X78192380Y-106957857D01*
X79192380Y-106481666D02*
X79144761Y-106576904D01*
X79097142Y-106624523D01*
X79001904Y-106672142D01*
X78716190Y-106672142D01*
X78620952Y-106624523D01*
X78573333Y-106576904D01*
X78525714Y-106481666D01*
X78525714Y-106338809D01*
X78573333Y-106243571D01*
X78620952Y-106195952D01*
X78716190Y-106148333D01*
X79001904Y-106148333D01*
X79097142Y-106195952D01*
X79144761Y-106243571D01*
X79192380Y-106338809D01*
X79192380Y-106481666D01*
X73112380Y-108195952D02*
X73112380Y-108672142D01*
X73588571Y-108719761D01*
X73540952Y-108672142D01*
X73493333Y-108576904D01*
X73493333Y-108338809D01*
X73540952Y-108243571D01*
X73588571Y-108195952D01*
X73683809Y-108148333D01*
X73921904Y-108148333D01*
X74017142Y-108195952D01*
X74064761Y-108243571D01*
X74112380Y-108338809D01*
X74112380Y-108576904D01*
X74064761Y-108672142D01*
X74017142Y-108719761D01*
X73112380Y-107862619D02*
X74112380Y-107529285D01*
X73112380Y-107195952D01*
X74112380Y-106862619D02*
X73445714Y-106862619D01*
X73112380Y-106862619D02*
X73160000Y-106910238D01*
X73207619Y-106862619D01*
X73160000Y-106815000D01*
X73112380Y-106862619D01*
X73207619Y-106862619D01*
X73445714Y-106386428D02*
X74112380Y-106386428D01*
X73540952Y-106386428D02*
X73493333Y-106338809D01*
X73445714Y-106243571D01*
X73445714Y-106100714D01*
X73493333Y-106005476D01*
X73588571Y-105957857D01*
X74112380Y-105957857D01*
X89995523Y-103020761D02*
X90138380Y-103068380D01*
X90376476Y-103068380D01*
X90471714Y-103020761D01*
X90519333Y-102973142D01*
X90566952Y-102877904D01*
X90566952Y-102782666D01*
X90519333Y-102687428D01*
X90471714Y-102639809D01*
X90376476Y-102592190D01*
X90186000Y-102544571D01*
X90090761Y-102496952D01*
X90043142Y-102449333D01*
X89995523Y-102354095D01*
X89995523Y-102258857D01*
X90043142Y-102163619D01*
X90090761Y-102116000D01*
X90186000Y-102068380D01*
X90424095Y-102068380D01*
X90566952Y-102116000D01*
X91566952Y-102973142D02*
X91519333Y-103020761D01*
X91376476Y-103068380D01*
X91281238Y-103068380D01*
X91138380Y-103020761D01*
X91043142Y-102925523D01*
X90995523Y-102830285D01*
X90947904Y-102639809D01*
X90947904Y-102496952D01*
X90995523Y-102306476D01*
X91043142Y-102211238D01*
X91138380Y-102116000D01*
X91281238Y-102068380D01*
X91376476Y-102068380D01*
X91519333Y-102116000D01*
X91566952Y-102163619D01*
X92471714Y-103068380D02*
X91995523Y-103068380D01*
X91995523Y-102068380D01*
X93019714Y-103020761D02*
X93162571Y-103068380D01*
X93400666Y-103068380D01*
X93495904Y-103020761D01*
X93543523Y-102973142D01*
X93591142Y-102877904D01*
X93591142Y-102782666D01*
X93543523Y-102687428D01*
X93495904Y-102639809D01*
X93400666Y-102592190D01*
X93210190Y-102544571D01*
X93114952Y-102496952D01*
X93067333Y-102449333D01*
X93019714Y-102354095D01*
X93019714Y-102258857D01*
X93067333Y-102163619D01*
X93114952Y-102116000D01*
X93210190Y-102068380D01*
X93448285Y-102068380D01*
X93591142Y-102116000D01*
X94019714Y-103068380D02*
X94019714Y-102068380D01*
X94257809Y-102068380D01*
X94400666Y-102116000D01*
X94495904Y-102211238D01*
X94543523Y-102306476D01*
X94591142Y-102496952D01*
X94591142Y-102639809D01*
X94543523Y-102830285D01*
X94495904Y-102925523D01*
X94400666Y-103020761D01*
X94257809Y-103068380D01*
X94019714Y-103068380D01*
X94972095Y-102782666D02*
X95448285Y-102782666D01*
X94876857Y-103068380D02*
X95210190Y-102068380D01*
X95543523Y-103068380D01*
X104592380Y-123483619D02*
X104116190Y-123816952D01*
X104592380Y-124055047D02*
X103592380Y-124055047D01*
X103592380Y-123674095D01*
X103640000Y-123578857D01*
X103687619Y-123531238D01*
X103782857Y-123483619D01*
X103925714Y-123483619D01*
X104020952Y-123531238D01*
X104068571Y-123578857D01*
X104116190Y-123674095D01*
X104116190Y-124055047D01*
X103592380Y-123197904D02*
X103592380Y-122626476D01*
X104592380Y-122912190D02*
X103592380Y-122912190D01*
X104544761Y-122340761D02*
X104592380Y-122197904D01*
X104592380Y-121959809D01*
X104544761Y-121864571D01*
X104497142Y-121816952D01*
X104401904Y-121769333D01*
X104306666Y-121769333D01*
X104211428Y-121816952D01*
X104163809Y-121864571D01*
X104116190Y-121959809D01*
X104068571Y-122150285D01*
X104020952Y-122245523D01*
X103973333Y-122293142D01*
X103878095Y-122340761D01*
X103782857Y-122340761D01*
X103687619Y-122293142D01*
X103640000Y-122245523D01*
X103592380Y-122150285D01*
X103592380Y-121912190D01*
X103640000Y-121769333D01*
X101052380Y-123316904D02*
X101052380Y-122745476D01*
X102052380Y-123031190D02*
X101052380Y-123031190D01*
X101052380Y-122507380D02*
X102052380Y-121840714D01*
X101052380Y-121840714D02*
X102052380Y-122507380D01*
X99512380Y-122721666D02*
X99036190Y-123055000D01*
X99512380Y-123293095D02*
X98512380Y-123293095D01*
X98512380Y-122912142D01*
X98560000Y-122816904D01*
X98607619Y-122769285D01*
X98702857Y-122721666D01*
X98845714Y-122721666D01*
X98940952Y-122769285D01*
X98988571Y-122816904D01*
X99036190Y-122912142D01*
X99036190Y-123293095D01*
X98512380Y-122388333D02*
X99512380Y-121721666D01*
X98512380Y-121721666D02*
X99512380Y-122388333D01*
X129992380Y-118657619D02*
X129516190Y-118990952D01*
X129992380Y-119229047D02*
X128992380Y-119229047D01*
X128992380Y-118848095D01*
X129040000Y-118752857D01*
X129087619Y-118705238D01*
X129182857Y-118657619D01*
X129325714Y-118657619D01*
X129420952Y-118705238D01*
X129468571Y-118752857D01*
X129516190Y-118848095D01*
X129516190Y-119229047D01*
X129944761Y-118276666D02*
X129992380Y-118133809D01*
X129992380Y-117895714D01*
X129944761Y-117800476D01*
X129897142Y-117752857D01*
X129801904Y-117705238D01*
X129706666Y-117705238D01*
X129611428Y-117752857D01*
X129563809Y-117800476D01*
X129516190Y-117895714D01*
X129468571Y-118086190D01*
X129420952Y-118181428D01*
X129373333Y-118229047D01*
X129278095Y-118276666D01*
X129182857Y-118276666D01*
X129087619Y-118229047D01*
X129040000Y-118181428D01*
X128992380Y-118086190D01*
X128992380Y-117848095D01*
X129040000Y-117705238D01*
X128992380Y-117419523D02*
X128992380Y-116848095D01*
X129992380Y-117133809D02*
X128992380Y-117133809D01*
X124864761Y-119300476D02*
X124912380Y-119157619D01*
X124912380Y-118919523D01*
X124864761Y-118824285D01*
X124817142Y-118776666D01*
X124721904Y-118729047D01*
X124626666Y-118729047D01*
X124531428Y-118776666D01*
X124483809Y-118824285D01*
X124436190Y-118919523D01*
X124388571Y-119110000D01*
X124340952Y-119205238D01*
X124293333Y-119252857D01*
X124198095Y-119300476D01*
X124102857Y-119300476D01*
X124007619Y-119252857D01*
X123960000Y-119205238D01*
X123912380Y-119110000D01*
X123912380Y-118871904D01*
X123960000Y-118729047D01*
X124817142Y-117729047D02*
X124864761Y-117776666D01*
X124912380Y-117919523D01*
X124912380Y-118014761D01*
X124864761Y-118157619D01*
X124769523Y-118252857D01*
X124674285Y-118300476D01*
X124483809Y-118348095D01*
X124340952Y-118348095D01*
X124150476Y-118300476D01*
X124055238Y-118252857D01*
X123960000Y-118157619D01*
X123912380Y-118014761D01*
X123912380Y-117919523D01*
X123960000Y-117776666D01*
X124007619Y-117729047D01*
X124912380Y-116824285D02*
X124912380Y-117300476D01*
X123912380Y-117300476D01*
X127404761Y-119324285D02*
X127452380Y-119181428D01*
X127452380Y-118943333D01*
X127404761Y-118848095D01*
X127357142Y-118800476D01*
X127261904Y-118752857D01*
X127166666Y-118752857D01*
X127071428Y-118800476D01*
X127023809Y-118848095D01*
X126976190Y-118943333D01*
X126928571Y-119133809D01*
X126880952Y-119229047D01*
X126833333Y-119276666D01*
X126738095Y-119324285D01*
X126642857Y-119324285D01*
X126547619Y-119276666D01*
X126500000Y-119229047D01*
X126452380Y-119133809D01*
X126452380Y-118895714D01*
X126500000Y-118752857D01*
X127452380Y-118324285D02*
X126452380Y-118324285D01*
X126452380Y-118086190D01*
X126500000Y-117943333D01*
X126595238Y-117848095D01*
X126690476Y-117800476D01*
X126880952Y-117752857D01*
X127023809Y-117752857D01*
X127214285Y-117800476D01*
X127309523Y-117848095D01*
X127404761Y-117943333D01*
X127452380Y-118086190D01*
X127452380Y-118324285D01*
X127166666Y-117371904D02*
X127166666Y-116895714D01*
X127452380Y-117467142D02*
X126452380Y-117133809D01*
X127452380Y-116800476D01*
X121420000Y-118871904D02*
X121372380Y-118967142D01*
X121372380Y-119110000D01*
X121420000Y-119252857D01*
X121515238Y-119348095D01*
X121610476Y-119395714D01*
X121800952Y-119443333D01*
X121943809Y-119443333D01*
X122134285Y-119395714D01*
X122229523Y-119348095D01*
X122324761Y-119252857D01*
X122372380Y-119110000D01*
X122372380Y-119014761D01*
X122324761Y-118871904D01*
X122277142Y-118824285D01*
X121943809Y-118824285D01*
X121943809Y-119014761D01*
X122372380Y-118395714D02*
X121372380Y-118395714D01*
X122372380Y-117824285D01*
X121372380Y-117824285D01*
X122372380Y-117348095D02*
X121372380Y-117348095D01*
X121372380Y-117110000D01*
X121420000Y-116967142D01*
X121515238Y-116871904D01*
X121610476Y-116824285D01*
X121800952Y-116776666D01*
X121943809Y-116776666D01*
X122134285Y-116824285D01*
X122229523Y-116871904D01*
X122324761Y-116967142D01*
X122372380Y-117110000D01*
X122372380Y-117348095D01*
X118832380Y-119276666D02*
X118832380Y-118657619D01*
X119213333Y-118990952D01*
X119213333Y-118848095D01*
X119260952Y-118752857D01*
X119308571Y-118705238D01*
X119403809Y-118657619D01*
X119641904Y-118657619D01*
X119737142Y-118705238D01*
X119784761Y-118752857D01*
X119832380Y-118848095D01*
X119832380Y-119133809D01*
X119784761Y-119229047D01*
X119737142Y-119276666D01*
X119165714Y-118324285D02*
X119832380Y-118086190D01*
X119165714Y-117848095D01*
X119832380Y-117324285D02*
X119784761Y-117419523D01*
X119737142Y-117467142D01*
X119641904Y-117514761D01*
X119356190Y-117514761D01*
X119260952Y-117467142D01*
X119213333Y-117419523D01*
X119165714Y-117324285D01*
X119165714Y-117181428D01*
X119213333Y-117086190D01*
X119260952Y-117038571D01*
X119356190Y-116990952D01*
X119641904Y-116990952D01*
X119737142Y-117038571D01*
X119784761Y-117086190D01*
X119832380Y-117181428D01*
X119832380Y-117324285D01*
X116292380Y-118990952D02*
X116292380Y-119467142D01*
X116768571Y-119514761D01*
X116720952Y-119467142D01*
X116673333Y-119371904D01*
X116673333Y-119133809D01*
X116720952Y-119038571D01*
X116768571Y-118990952D01*
X116863809Y-118943333D01*
X117101904Y-118943333D01*
X117197142Y-118990952D01*
X117244761Y-119038571D01*
X117292380Y-119133809D01*
X117292380Y-119371904D01*
X117244761Y-119467142D01*
X117197142Y-119514761D01*
X116292380Y-118657619D02*
X117292380Y-118324285D01*
X116292380Y-117990952D01*
X117292380Y-117657619D02*
X116625714Y-117657619D01*
X116292380Y-117657619D02*
X116340000Y-117705238D01*
X116387619Y-117657619D01*
X116340000Y-117610000D01*
X116292380Y-117657619D01*
X116387619Y-117657619D01*
X116625714Y-117181428D02*
X117292380Y-117181428D01*
X116720952Y-117181428D02*
X116673333Y-117133809D01*
X116625714Y-117038571D01*
X116625714Y-116895714D01*
X116673333Y-116800476D01*
X116768571Y-116752857D01*
X117292380Y-116752857D01*
X59761428Y-120086428D02*
X59713809Y-120229285D01*
X59666190Y-120276904D01*
X59570952Y-120324523D01*
X59428095Y-120324523D01*
X59332857Y-120276904D01*
X59285238Y-120229285D01*
X59237619Y-120134047D01*
X59237619Y-119753095D01*
X60237619Y-119753095D01*
X60237619Y-120086428D01*
X60190000Y-120181666D01*
X60142380Y-120229285D01*
X60047142Y-120276904D01*
X59951904Y-120276904D01*
X59856666Y-120229285D01*
X59809047Y-120181666D01*
X59761428Y-120086428D01*
X59761428Y-119753095D01*
X59523333Y-114696904D02*
X59523333Y-115173095D01*
X59237619Y-114601666D02*
X60237619Y-114935000D01*
X59237619Y-115268333D01*
X60190000Y-109093095D02*
X60237619Y-108997857D01*
X60237619Y-108855000D01*
X60190000Y-108712142D01*
X60094761Y-108616904D01*
X59999523Y-108569285D01*
X59809047Y-108521666D01*
X59666190Y-108521666D01*
X59475714Y-108569285D01*
X59380476Y-108616904D01*
X59285238Y-108712142D01*
X59237619Y-108855000D01*
X59237619Y-108950238D01*
X59285238Y-109093095D01*
X59332857Y-109140714D01*
X59666190Y-109140714D01*
X59666190Y-108950238D01*
X59237619Y-109569285D02*
X60237619Y-109569285D01*
X59237619Y-110140714D01*
X60237619Y-110140714D01*
X59237619Y-110616904D02*
X60237619Y-110616904D01*
X60237619Y-110855000D01*
X60190000Y-110997857D01*
X60094761Y-111093095D01*
X59999523Y-111140714D01*
X59809047Y-111188333D01*
X59666190Y-111188333D01*
X59475714Y-111140714D01*
X59380476Y-111093095D01*
X59285238Y-110997857D01*
X59237619Y-110855000D01*
X59237619Y-110616904D01*
X59237619Y-104155952D02*
X59237619Y-103584523D01*
X59237619Y-103870238D02*
X60237619Y-103870238D01*
X60094761Y-103775000D01*
X59999523Y-103679761D01*
X59951904Y-103584523D01*
X60142380Y-104536904D02*
X60190000Y-104584523D01*
X60237619Y-104679761D01*
X60237619Y-104917857D01*
X60190000Y-105013095D01*
X60142380Y-105060714D01*
X60047142Y-105108333D01*
X59951904Y-105108333D01*
X59809047Y-105060714D01*
X59237619Y-104489285D01*
X59237619Y-105108333D01*
X60237619Y-105394047D02*
X59237619Y-105727380D01*
X60237619Y-106060714D01*
X65214523Y-114387380D02*
X64738333Y-114387380D01*
X64690714Y-114863571D01*
X64738333Y-114815952D01*
X64833571Y-114768333D01*
X65071666Y-114768333D01*
X65166904Y-114815952D01*
X65214523Y-114863571D01*
X65262142Y-114958809D01*
X65262142Y-115196904D01*
X65214523Y-115292142D01*
X65166904Y-115339761D01*
X65071666Y-115387380D01*
X64833571Y-115387380D01*
X64738333Y-115339761D01*
X64690714Y-115292142D01*
X65547857Y-114387380D02*
X65881190Y-115387380D01*
X66214523Y-114387380D01*
X65278095Y-111895000D02*
X65182857Y-111847380D01*
X65040000Y-111847380D01*
X64897142Y-111895000D01*
X64801904Y-111990238D01*
X64754285Y-112085476D01*
X64706666Y-112275952D01*
X64706666Y-112418809D01*
X64754285Y-112609285D01*
X64801904Y-112704523D01*
X64897142Y-112799761D01*
X65040000Y-112847380D01*
X65135238Y-112847380D01*
X65278095Y-112799761D01*
X65325714Y-112752142D01*
X65325714Y-112418809D01*
X65135238Y-112418809D01*
X65754285Y-112847380D02*
X65754285Y-111847380D01*
X66325714Y-112847380D01*
X66325714Y-111847380D01*
X66801904Y-112847380D02*
X66801904Y-111847380D01*
X67040000Y-111847380D01*
X67182857Y-111895000D01*
X67278095Y-111990238D01*
X67325714Y-112085476D01*
X67373333Y-112275952D01*
X67373333Y-112418809D01*
X67325714Y-112609285D01*
X67278095Y-112704523D01*
X67182857Y-112799761D01*
X67040000Y-112847380D01*
X66801904Y-112847380D01*
X64381190Y-109307380D02*
X64714523Y-110307380D01*
X65047857Y-109307380D01*
X65381190Y-110307380D02*
X65381190Y-109640714D01*
X65381190Y-109307380D02*
X65333571Y-109355000D01*
X65381190Y-109402619D01*
X65428809Y-109355000D01*
X65381190Y-109307380D01*
X65381190Y-109402619D01*
X65857380Y-109640714D02*
X65857380Y-110307380D01*
X65857380Y-109735952D02*
X65905000Y-109688333D01*
X66000238Y-109640714D01*
X66143095Y-109640714D01*
X66238333Y-109688333D01*
X66285952Y-109783571D01*
X66285952Y-110307380D01*
D10*
%TO.C,BNO055 IMU*%
X112555000Y-104140000D02*
X109805000Y-104140000D01*
X109805000Y-104140000D02*
X109805000Y-106915000D01*
X109805000Y-106915000D02*
X109805000Y-106865000D01*
X109780000Y-121390000D02*
X109780000Y-124390000D01*
X109780000Y-124390000D02*
X112755000Y-124390000D01*
X133480000Y-124415000D02*
X136555000Y-124415000D01*
X136555000Y-124415000D02*
X136555000Y-120915000D01*
X136505000Y-107040000D02*
X136505000Y-104115000D01*
X136505000Y-104115000D02*
X133130000Y-104115000D01*
X111125000Y-102870000D02*
X111125000Y-105664000D01*
X111125000Y-102870000D02*
X113919000Y-102870000D01*
X132207000Y-102870000D02*
X135255000Y-102870000D01*
X135255000Y-102870000D02*
X135255000Y-105918000D01*
X135255000Y-120142000D02*
X135255000Y-123190000D01*
X135255000Y-123190000D02*
X132461000Y-123190000D01*
X111125000Y-120142000D02*
X111125000Y-123190000D01*
X113919000Y-123190000D02*
X111125000Y-123190000D01*
D13*
%TO.C,G\u002A\u002A\u002A*%
G36*
X128223566Y-113787923D02*
G01*
X128417427Y-113892591D01*
X128568495Y-114048519D01*
X128642484Y-114195172D01*
X128668112Y-114391917D01*
X128620112Y-114572951D01*
X128509493Y-114724879D01*
X128347262Y-114834310D01*
X128144427Y-114887850D01*
X128070603Y-114890972D01*
X127930104Y-114873146D01*
X127805225Y-114832100D01*
X127797620Y-114828147D01*
X127648806Y-114701156D01*
X127549650Y-114516839D01*
X127508623Y-114291849D01*
X127508000Y-114259020D01*
X127515269Y-114116671D01*
X127547472Y-114018884D01*
X127620203Y-113926069D01*
X127651933Y-113893600D01*
X127754069Y-113803807D01*
X127850004Y-113761497D01*
X127981482Y-113749819D01*
X128008475Y-113749667D01*
X128223566Y-113787923D01*
G37*
X128223566Y-113787923D02*
X128417427Y-113892591D01*
X128568495Y-114048519D01*
X128642484Y-114195172D01*
X128668112Y-114391917D01*
X128620112Y-114572951D01*
X128509493Y-114724879D01*
X128347262Y-114834310D01*
X128144427Y-114887850D01*
X128070603Y-114890972D01*
X127930104Y-114873146D01*
X127805225Y-114832100D01*
X127797620Y-114828147D01*
X127648806Y-114701156D01*
X127549650Y-114516839D01*
X127508623Y-114291849D01*
X127508000Y-114259020D01*
X127515269Y-114116671D01*
X127547472Y-114018884D01*
X127620203Y-113926069D01*
X127651933Y-113893600D01*
X127754069Y-113803807D01*
X127850004Y-113761497D01*
X127981482Y-113749819D01*
X128008475Y-113749667D01*
X128223566Y-113787923D01*
G36*
X126389769Y-109948706D02*
G01*
X126548345Y-110048947D01*
X126670766Y-110212096D01*
X126700004Y-110273829D01*
X126721400Y-110336680D01*
X126735703Y-110413518D01*
X126743660Y-110517215D01*
X126746020Y-110660642D01*
X126743532Y-110856670D01*
X126736945Y-111118170D01*
X126732475Y-111273167D01*
X126712105Y-111924894D01*
X126691640Y-112494276D01*
X126670935Y-112983633D01*
X126649846Y-113395289D01*
X126628230Y-113731562D01*
X126605941Y-113994775D01*
X126582837Y-114187250D01*
X126558773Y-114311307D01*
X126541056Y-114359075D01*
X126404534Y-114527389D01*
X126233612Y-114631449D01*
X126044986Y-114665619D01*
X125855352Y-114624266D01*
X125814666Y-114604205D01*
X125676250Y-114488893D01*
X125564038Y-114323853D01*
X125461576Y-114124863D01*
X125511479Y-113101181D01*
X125527796Y-112753735D01*
X125544388Y-112377839D01*
X125560143Y-112000343D01*
X125573945Y-111648094D01*
X125584681Y-111347941D01*
X125586432Y-111294333D01*
X125596742Y-111032843D01*
X125609925Y-110789475D01*
X125624780Y-110581380D01*
X125640102Y-110425705D01*
X125653007Y-110345727D01*
X125737386Y-110153846D01*
X125869899Y-110016017D01*
X126033898Y-109934427D01*
X126212738Y-109911262D01*
X126389769Y-109948706D01*
G37*
X126389769Y-109948706D02*
X126548345Y-110048947D01*
X126670766Y-110212096D01*
X126700004Y-110273829D01*
X126721400Y-110336680D01*
X126735703Y-110413518D01*
X126743660Y-110517215D01*
X126746020Y-110660642D01*
X126743532Y-110856670D01*
X126736945Y-111118170D01*
X126732475Y-111273167D01*
X126712105Y-111924894D01*
X126691640Y-112494276D01*
X126670935Y-112983633D01*
X126649846Y-113395289D01*
X126628230Y-113731562D01*
X126605941Y-113994775D01*
X126582837Y-114187250D01*
X126558773Y-114311307D01*
X126541056Y-114359075D01*
X126404534Y-114527389D01*
X126233612Y-114631449D01*
X126044986Y-114665619D01*
X125855352Y-114624266D01*
X125814666Y-114604205D01*
X125676250Y-114488893D01*
X125564038Y-114323853D01*
X125461576Y-114124863D01*
X125511479Y-113101181D01*
X125527796Y-112753735D01*
X125544388Y-112377839D01*
X125560143Y-112000343D01*
X125573945Y-111648094D01*
X125584681Y-111347941D01*
X125586432Y-111294333D01*
X125596742Y-111032843D01*
X125609925Y-110789475D01*
X125624780Y-110581380D01*
X125640102Y-110425705D01*
X125653007Y-110345727D01*
X125737386Y-110153846D01*
X125869899Y-110016017D01*
X126033898Y-109934427D01*
X126212738Y-109911262D01*
X126389769Y-109948706D01*
G36*
X119526851Y-109355289D02*
G01*
X119899342Y-109412339D01*
X120226983Y-109540668D01*
X120507585Y-109738424D01*
X120738961Y-110003755D01*
X120918922Y-110334806D01*
X121016545Y-110616813D01*
X121092995Y-110891794D01*
X121142315Y-110544789D01*
X121202695Y-110263151D01*
X121296563Y-110055323D01*
X121429717Y-109915106D01*
X121607955Y-109836300D01*
X121826970Y-109812666D01*
X122055598Y-109850381D01*
X122243744Y-109962095D01*
X122387946Y-110145664D01*
X122399553Y-110167381D01*
X122437585Y-110248300D01*
X122459067Y-110324422D01*
X122465304Y-110417492D01*
X122457603Y-110549255D01*
X122437270Y-110741456D01*
X122435142Y-110760048D01*
X122386142Y-111266111D01*
X122360386Y-111722460D01*
X122357686Y-112122967D01*
X122377852Y-112461505D01*
X122420693Y-112731947D01*
X122486020Y-112928167D01*
X122503291Y-112960594D01*
X122616042Y-113089903D01*
X122774264Y-113190542D01*
X122956507Y-113257237D01*
X123141323Y-113284714D01*
X123307262Y-113267701D01*
X123432875Y-113200923D01*
X123442258Y-113191449D01*
X123505406Y-113100409D01*
X123576245Y-112964525D01*
X123619513Y-112863366D01*
X123672581Y-112660983D01*
X123704553Y-112394959D01*
X123715227Y-112083701D01*
X123704402Y-111745616D01*
X123671875Y-111399111D01*
X123638054Y-111172630D01*
X123595448Y-110873758D01*
X123586912Y-110641308D01*
X123615853Y-110462781D01*
X123685682Y-110325679D01*
X123799807Y-110217504D01*
X123917743Y-110147213D01*
X124138903Y-110077686D01*
X124358973Y-110088531D01*
X124564707Y-110176333D01*
X124742856Y-110337674D01*
X124764603Y-110365616D01*
X124805412Y-110450665D01*
X124852654Y-110595629D01*
X124899194Y-110776849D01*
X124924109Y-110894661D01*
X125013093Y-111492329D01*
X125042694Y-112053985D01*
X125013817Y-112574819D01*
X124927370Y-113050020D01*
X124784258Y-113474776D01*
X124585389Y-113844278D01*
X124331669Y-114153714D01*
X124305155Y-114179422D01*
X124032093Y-114386169D01*
X123722049Y-114520578D01*
X123370452Y-114584083D01*
X123020666Y-114582269D01*
X122602648Y-114513262D01*
X122221472Y-114377797D01*
X121884461Y-114181819D01*
X121598940Y-113931269D01*
X121372232Y-113632092D01*
X121211661Y-113290229D01*
X121149432Y-113063825D01*
X121118567Y-112933329D01*
X121090027Y-112844297D01*
X121073333Y-112818333D01*
X121051881Y-112856112D01*
X121022163Y-112954089D01*
X120996996Y-113061750D01*
X120881616Y-113433989D01*
X120704853Y-113765217D01*
X120475570Y-114048816D01*
X120202632Y-114278172D01*
X119894902Y-114446668D01*
X119561245Y-114547689D01*
X119210524Y-114574617D01*
X118999000Y-114553041D01*
X118616824Y-114448462D01*
X118280143Y-114273124D01*
X117989891Y-114028265D01*
X117747004Y-113715119D01*
X117552420Y-113334922D01*
X117407073Y-112888910D01*
X117311900Y-112378319D01*
X117304237Y-112315713D01*
X117280668Y-111887022D01*
X118601061Y-111887022D01*
X118621759Y-112226735D01*
X118681276Y-112566412D01*
X118722876Y-112721076D01*
X118818725Y-112953345D01*
X118942808Y-113126241D01*
X119085929Y-113234986D01*
X119238890Y-113274802D01*
X119392495Y-113240913D01*
X119527752Y-113139179D01*
X119607372Y-113041151D01*
X119668459Y-112928828D01*
X119713963Y-112788985D01*
X119746835Y-112608395D01*
X119770025Y-112373832D01*
X119786486Y-112072069D01*
X119790775Y-111960243D01*
X119797073Y-111560034D01*
X119784274Y-111238983D01*
X119751935Y-110993662D01*
X119699617Y-110820643D01*
X119631135Y-110720241D01*
X119513444Y-110664667D01*
X119352890Y-110653314D01*
X119176018Y-110681909D01*
X119009369Y-110746184D01*
X118880245Y-110841056D01*
X118758775Y-111024288D01*
X118670880Y-111270135D01*
X118617872Y-111562934D01*
X118601061Y-111887022D01*
X117280668Y-111887022D01*
X117277689Y-111832847D01*
X117309656Y-111368427D01*
X117397209Y-110933430D01*
X117537417Y-110538829D01*
X117727348Y-110195601D01*
X117938795Y-109939277D01*
X118250175Y-109688289D01*
X118607237Y-109503946D01*
X118998434Y-109390492D01*
X119412219Y-109352174D01*
X119526851Y-109355289D01*
G37*
X119526851Y-109355289D02*
X119899342Y-109412339D01*
X120226983Y-109540668D01*
X120507585Y-109738424D01*
X120738961Y-110003755D01*
X120918922Y-110334806D01*
X121016545Y-110616813D01*
X121092995Y-110891794D01*
X121142315Y-110544789D01*
X121202695Y-110263151D01*
X121296563Y-110055323D01*
X121429717Y-109915106D01*
X121607955Y-109836300D01*
X121826970Y-109812666D01*
X122055598Y-109850381D01*
X122243744Y-109962095D01*
X122387946Y-110145664D01*
X122399553Y-110167381D01*
X122437585Y-110248300D01*
X122459067Y-110324422D01*
X122465304Y-110417492D01*
X122457603Y-110549255D01*
X122437270Y-110741456D01*
X122435142Y-110760048D01*
X122386142Y-111266111D01*
X122360386Y-111722460D01*
X122357686Y-112122967D01*
X122377852Y-112461505D01*
X122420693Y-112731947D01*
X122486020Y-112928167D01*
X122503291Y-112960594D01*
X122616042Y-113089903D01*
X122774264Y-113190542D01*
X122956507Y-113257237D01*
X123141323Y-113284714D01*
X123307262Y-113267701D01*
X123432875Y-113200923D01*
X123442258Y-113191449D01*
X123505406Y-113100409D01*
X123576245Y-112964525D01*
X123619513Y-112863366D01*
X123672581Y-112660983D01*
X123704553Y-112394959D01*
X123715227Y-112083701D01*
X123704402Y-111745616D01*
X123671875Y-111399111D01*
X123638054Y-111172630D01*
X123595448Y-110873758D01*
X123586912Y-110641308D01*
X123615853Y-110462781D01*
X123685682Y-110325679D01*
X123799807Y-110217504D01*
X123917743Y-110147213D01*
X124138903Y-110077686D01*
X124358973Y-110088531D01*
X124564707Y-110176333D01*
X124742856Y-110337674D01*
X124764603Y-110365616D01*
X124805412Y-110450665D01*
X124852654Y-110595629D01*
X124899194Y-110776849D01*
X124924109Y-110894661D01*
X125013093Y-111492329D01*
X125042694Y-112053985D01*
X125013817Y-112574819D01*
X124927370Y-113050020D01*
X124784258Y-113474776D01*
X124585389Y-113844278D01*
X124331669Y-114153714D01*
X124305155Y-114179422D01*
X124032093Y-114386169D01*
X123722049Y-114520578D01*
X123370452Y-114584083D01*
X123020666Y-114582269D01*
X122602648Y-114513262D01*
X122221472Y-114377797D01*
X121884461Y-114181819D01*
X121598940Y-113931269D01*
X121372232Y-113632092D01*
X121211661Y-113290229D01*
X121149432Y-113063825D01*
X121118567Y-112933329D01*
X121090027Y-112844297D01*
X121073333Y-112818333D01*
X121051881Y-112856112D01*
X121022163Y-112954089D01*
X120996996Y-113061750D01*
X120881616Y-113433989D01*
X120704853Y-113765217D01*
X120475570Y-114048816D01*
X120202632Y-114278172D01*
X119894902Y-114446668D01*
X119561245Y-114547689D01*
X119210524Y-114574617D01*
X118999000Y-114553041D01*
X118616824Y-114448462D01*
X118280143Y-114273124D01*
X117989891Y-114028265D01*
X117747004Y-113715119D01*
X117552420Y-113334922D01*
X117407073Y-112888910D01*
X117311900Y-112378319D01*
X117304237Y-112315713D01*
X117280668Y-111887022D01*
X118601061Y-111887022D01*
X118621759Y-112226735D01*
X118681276Y-112566412D01*
X118722876Y-112721076D01*
X118818725Y-112953345D01*
X118942808Y-113126241D01*
X119085929Y-113234986D01*
X119238890Y-113274802D01*
X119392495Y-113240913D01*
X119527752Y-113139179D01*
X119607372Y-113041151D01*
X119668459Y-112928828D01*
X119713963Y-112788985D01*
X119746835Y-112608395D01*
X119770025Y-112373832D01*
X119786486Y-112072069D01*
X119790775Y-111960243D01*
X119797073Y-111560034D01*
X119784274Y-111238983D01*
X119751935Y-110993662D01*
X119699617Y-110820643D01*
X119631135Y-110720241D01*
X119513444Y-110664667D01*
X119352890Y-110653314D01*
X119176018Y-110681909D01*
X119009369Y-110746184D01*
X118880245Y-110841056D01*
X118758775Y-111024288D01*
X118670880Y-111270135D01*
X118617872Y-111562934D01*
X118601061Y-111887022D01*
X117280668Y-111887022D01*
X117277689Y-111832847D01*
X117309656Y-111368427D01*
X117397209Y-110933430D01*
X117537417Y-110538829D01*
X117727348Y-110195601D01*
X117938795Y-109939277D01*
X118250175Y-109688289D01*
X118607237Y-109503946D01*
X118998434Y-109390492D01*
X119412219Y-109352174D01*
X119526851Y-109355289D01*
G36*
X128539728Y-109187708D02*
G01*
X128648890Y-109228125D01*
X128752775Y-109306783D01*
X128827031Y-109375589D01*
X128885756Y-109443864D01*
X128929382Y-109520823D01*
X128958345Y-109615681D01*
X128973077Y-109737653D01*
X128974013Y-109895955D01*
X128961587Y-110099800D01*
X128936232Y-110358405D01*
X128898383Y-110680984D01*
X128848473Y-111076752D01*
X128839425Y-111147259D01*
X128803077Y-111440086D01*
X128767743Y-111742533D01*
X128736186Y-112029670D01*
X128711169Y-112276566D01*
X128698342Y-112420531D01*
X128669286Y-112695435D01*
X128628988Y-112900503D01*
X128571859Y-113050381D01*
X128492312Y-113159711D01*
X128384760Y-113243137D01*
X128384361Y-113243380D01*
X128215979Y-113307392D01*
X128027008Y-113321063D01*
X127854425Y-113283475D01*
X127804333Y-113257788D01*
X127685921Y-113170980D01*
X127606391Y-113073858D01*
X127558610Y-112947864D01*
X127535448Y-112774439D01*
X127529758Y-112543167D01*
X127535055Y-112403804D01*
X127549698Y-112194382D01*
X127572235Y-111928815D01*
X127601214Y-111621020D01*
X127635182Y-111284913D01*
X127672688Y-110934408D01*
X127712280Y-110583421D01*
X127752504Y-110245868D01*
X127791909Y-109935664D01*
X127829043Y-109666725D01*
X127832164Y-109645425D01*
X127892461Y-109490934D01*
X128014530Y-109338508D01*
X128120529Y-109241983D01*
X128211518Y-109194221D01*
X128326304Y-109178621D01*
X128390546Y-109177667D01*
X128539728Y-109187708D01*
G37*
X128539728Y-109187708D02*
X128648890Y-109228125D01*
X128752775Y-109306783D01*
X128827031Y-109375589D01*
X128885756Y-109443864D01*
X128929382Y-109520823D01*
X128958345Y-109615681D01*
X128973077Y-109737653D01*
X128974013Y-109895955D01*
X128961587Y-110099800D01*
X128936232Y-110358405D01*
X128898383Y-110680984D01*
X128848473Y-111076752D01*
X128839425Y-111147259D01*
X128803077Y-111440086D01*
X128767743Y-111742533D01*
X128736186Y-112029670D01*
X128711169Y-112276566D01*
X128698342Y-112420531D01*
X128669286Y-112695435D01*
X128628988Y-112900503D01*
X128571859Y-113050381D01*
X128492312Y-113159711D01*
X128384760Y-113243137D01*
X128384361Y-113243380D01*
X128215979Y-113307392D01*
X128027008Y-113321063D01*
X127854425Y-113283475D01*
X127804333Y-113257788D01*
X127685921Y-113170980D01*
X127606391Y-113073858D01*
X127558610Y-112947864D01*
X127535448Y-112774439D01*
X127529758Y-112543167D01*
X127535055Y-112403804D01*
X127549698Y-112194382D01*
X127572235Y-111928815D01*
X127601214Y-111621020D01*
X127635182Y-111284913D01*
X127672688Y-110934408D01*
X127712280Y-110583421D01*
X127752504Y-110245868D01*
X127791909Y-109935664D01*
X127829043Y-109666725D01*
X127832164Y-109645425D01*
X127892461Y-109490934D01*
X128014530Y-109338508D01*
X128120529Y-109241983D01*
X128211518Y-109194221D01*
X128326304Y-109178621D01*
X128390546Y-109177667D01*
X128539728Y-109187708D01*
D10*
%TO.C,C1*%
X76102936Y-109580000D02*
X77307064Y-109580000D01*
X76102936Y-111400000D02*
X77307064Y-111400000D01*
%TO.C,C2*%
X76232936Y-115210000D02*
X77437064Y-115210000D01*
X76232936Y-113390000D02*
X77437064Y-113390000D01*
%TO.C,C3*%
X98457936Y-107675000D02*
X99662064Y-107675000D01*
X98457936Y-109495000D02*
X99662064Y-109495000D01*
D14*
%TO.C,TVSDIODE*%
X87040000Y-111380000D02*
X86765000Y-111380000D01*
X86765000Y-111380000D02*
X86390000Y-111655000D01*
X86390000Y-111655000D02*
X86390000Y-111705000D01*
X86390000Y-111705000D02*
X85615000Y-111705000D01*
X86865000Y-114680000D02*
X86390000Y-114680000D01*
X86390000Y-114680000D02*
X86390000Y-114330000D01*
X88040000Y-114455000D02*
X88040000Y-114330000D01*
X88040000Y-114380000D02*
X88040000Y-114680000D01*
X88040000Y-114680000D02*
X87590000Y-114680000D01*
X87665000Y-111380000D02*
X88040000Y-111380000D01*
X88040000Y-111380000D02*
X88040000Y-111680000D01*
D10*
%TO.C,J1*%
X51435000Y-102235000D02*
X51435000Y-122555000D01*
X59055000Y-102235000D02*
X59055000Y-122555000D01*
X52705000Y-122555000D02*
X52705000Y-102235000D01*
X51435000Y-122555000D02*
X59055000Y-122555000D01*
X59055000Y-102235000D02*
X51435000Y-102235000D01*
%TO.C,L1*%
X70845000Y-112997064D02*
X70845000Y-111792936D01*
X72665000Y-112997064D02*
X72665000Y-111792936D01*
%TO.C,R1*%
X63467064Y-105050000D02*
X62262936Y-105050000D01*
X63467064Y-103230000D02*
X62262936Y-103230000D01*
%TO.C,R2*%
X67977936Y-122195000D02*
X69182064Y-122195000D01*
X67977936Y-120375000D02*
X69182064Y-120375000D01*
%TO.C,TERM*%
X92985000Y-112427936D02*
X92985000Y-113632064D01*
X91165000Y-112427936D02*
X91165000Y-113632064D01*
D14*
%TO.C,DC/DC*%
X60965000Y-118355000D02*
X61465000Y-118355000D01*
X60965000Y-118355000D02*
X60965000Y-117855000D01*
X60965000Y-106455000D02*
X60965000Y-106955000D01*
X60965000Y-106455000D02*
X61465000Y-106455000D01*
X68665000Y-106455000D02*
X68165000Y-106455000D01*
X68665000Y-106455000D02*
X68665000Y-106955000D01*
X68665000Y-118355000D02*
X68165000Y-118355000D01*
X68665000Y-118355000D02*
X68665000Y-117855000D01*
D10*
%TO.C,RECV*%
X66295000Y-105275000D02*
X70180000Y-105275000D01*
X66295000Y-103005000D02*
X66295000Y-105275000D01*
X70180000Y-103005000D02*
X66295000Y-103005000D01*
%TO.C,SEND*%
X64465000Y-120150000D02*
X60580000Y-120150000D01*
X60580000Y-120150000D02*
X60580000Y-122420000D01*
X60580000Y-122420000D02*
X64465000Y-122420000D01*
D12*
%TO.C,TEENSYLC*%
X72390000Y-116205000D02*
X71120000Y-116205000D01*
X71120000Y-116205000D02*
X71120000Y-108585000D01*
X71120000Y-108585000D02*
X72390000Y-108585000D01*
X72390000Y-103505000D02*
X107950000Y-103505000D01*
X107950000Y-103505000D02*
X107950000Y-121285000D01*
X107950000Y-121285000D02*
X72390000Y-121285000D01*
X72390000Y-121285000D02*
X72390000Y-103505000D01*
D10*
%TO.C,RS485*%
X99060000Y-116225000D02*
X102510000Y-116225000D01*
X99060000Y-116225000D02*
X97110000Y-116225000D01*
X99060000Y-111105000D02*
X101010000Y-111105000D01*
X99060000Y-111105000D02*
X97110000Y-111105000D01*
%TO.C,BNO055 IMU*%
D12*
X119578952Y-102544571D02*
X119721809Y-102592190D01*
X119769428Y-102639809D01*
X119817047Y-102735047D01*
X119817047Y-102877904D01*
X119769428Y-102973142D01*
X119721809Y-103020761D01*
X119626571Y-103068380D01*
X119245619Y-103068380D01*
X119245619Y-102068380D01*
X119578952Y-102068380D01*
X119674190Y-102116000D01*
X119721809Y-102163619D01*
X119769428Y-102258857D01*
X119769428Y-102354095D01*
X119721809Y-102449333D01*
X119674190Y-102496952D01*
X119578952Y-102544571D01*
X119245619Y-102544571D01*
X120245619Y-103068380D02*
X120245619Y-102068380D01*
X120817047Y-103068380D01*
X120817047Y-102068380D01*
X121483714Y-102068380D02*
X121674190Y-102068380D01*
X121769428Y-102116000D01*
X121864666Y-102211238D01*
X121912285Y-102401714D01*
X121912285Y-102735047D01*
X121864666Y-102925523D01*
X121769428Y-103020761D01*
X121674190Y-103068380D01*
X121483714Y-103068380D01*
X121388476Y-103020761D01*
X121293238Y-102925523D01*
X121245619Y-102735047D01*
X121245619Y-102401714D01*
X121293238Y-102211238D01*
X121388476Y-102116000D01*
X121483714Y-102068380D01*
X122531333Y-102068380D02*
X122626571Y-102068380D01*
X122721809Y-102116000D01*
X122769428Y-102163619D01*
X122817047Y-102258857D01*
X122864666Y-102449333D01*
X122864666Y-102687428D01*
X122817047Y-102877904D01*
X122769428Y-102973142D01*
X122721809Y-103020761D01*
X122626571Y-103068380D01*
X122531333Y-103068380D01*
X122436095Y-103020761D01*
X122388476Y-102973142D01*
X122340857Y-102877904D01*
X122293238Y-102687428D01*
X122293238Y-102449333D01*
X122340857Y-102258857D01*
X122388476Y-102163619D01*
X122436095Y-102116000D01*
X122531333Y-102068380D01*
X123769428Y-102068380D02*
X123293238Y-102068380D01*
X123245619Y-102544571D01*
X123293238Y-102496952D01*
X123388476Y-102449333D01*
X123626571Y-102449333D01*
X123721809Y-102496952D01*
X123769428Y-102544571D01*
X123817047Y-102639809D01*
X123817047Y-102877904D01*
X123769428Y-102973142D01*
X123721809Y-103020761D01*
X123626571Y-103068380D01*
X123388476Y-103068380D01*
X123293238Y-103020761D01*
X123245619Y-102973142D01*
X124721809Y-102068380D02*
X124245619Y-102068380D01*
X124198000Y-102544571D01*
X124245619Y-102496952D01*
X124340857Y-102449333D01*
X124578952Y-102449333D01*
X124674190Y-102496952D01*
X124721809Y-102544571D01*
X124769428Y-102639809D01*
X124769428Y-102877904D01*
X124721809Y-102973142D01*
X124674190Y-103020761D01*
X124578952Y-103068380D01*
X124340857Y-103068380D01*
X124245619Y-103020761D01*
X124198000Y-102973142D01*
X125959904Y-103068380D02*
X125959904Y-102068380D01*
X126436095Y-103068380D02*
X126436095Y-102068380D01*
X126769428Y-102782666D01*
X127102761Y-102068380D01*
X127102761Y-103068380D01*
X127578952Y-102068380D02*
X127578952Y-102877904D01*
X127626571Y-102973142D01*
X127674190Y-103020761D01*
X127769428Y-103068380D01*
X127959904Y-103068380D01*
X128055142Y-103020761D01*
X128102761Y-102973142D01*
X128150380Y-102877904D01*
X128150380Y-102068380D01*
%TO.C,C1*%
X76538333Y-109027142D02*
X76490714Y-109074761D01*
X76347857Y-109122380D01*
X76252619Y-109122380D01*
X76109761Y-109074761D01*
X76014523Y-108979523D01*
X75966904Y-108884285D01*
X75919285Y-108693809D01*
X75919285Y-108550952D01*
X75966904Y-108360476D01*
X76014523Y-108265238D01*
X76109761Y-108170000D01*
X76252619Y-108122380D01*
X76347857Y-108122380D01*
X76490714Y-108170000D01*
X76538333Y-108217619D01*
X77490714Y-109122380D02*
X76919285Y-109122380D01*
X77205000Y-109122380D02*
X77205000Y-108122380D01*
X77109761Y-108265238D01*
X77014523Y-108360476D01*
X76919285Y-108408095D01*
%TO.C,C2*%
X76668333Y-112837142D02*
X76620714Y-112884761D01*
X76477857Y-112932380D01*
X76382619Y-112932380D01*
X76239761Y-112884761D01*
X76144523Y-112789523D01*
X76096904Y-112694285D01*
X76049285Y-112503809D01*
X76049285Y-112360952D01*
X76096904Y-112170476D01*
X76144523Y-112075238D01*
X76239761Y-111980000D01*
X76382619Y-111932380D01*
X76477857Y-111932380D01*
X76620714Y-111980000D01*
X76668333Y-112027619D01*
X77049285Y-112027619D02*
X77096904Y-111980000D01*
X77192142Y-111932380D01*
X77430238Y-111932380D01*
X77525476Y-111980000D01*
X77573095Y-112027619D01*
X77620714Y-112122857D01*
X77620714Y-112218095D01*
X77573095Y-112360952D01*
X77001666Y-112932380D01*
X77620714Y-112932380D01*
%TO.C,C3*%
X98893333Y-107122142D02*
X98845714Y-107169761D01*
X98702857Y-107217380D01*
X98607619Y-107217380D01*
X98464761Y-107169761D01*
X98369523Y-107074523D01*
X98321904Y-106979285D01*
X98274285Y-106788809D01*
X98274285Y-106645952D01*
X98321904Y-106455476D01*
X98369523Y-106360238D01*
X98464761Y-106265000D01*
X98607619Y-106217380D01*
X98702857Y-106217380D01*
X98845714Y-106265000D01*
X98893333Y-106312619D01*
X99226666Y-106217380D02*
X99845714Y-106217380D01*
X99512380Y-106598333D01*
X99655238Y-106598333D01*
X99750476Y-106645952D01*
X99798095Y-106693571D01*
X99845714Y-106788809D01*
X99845714Y-107026904D01*
X99798095Y-107122142D01*
X99750476Y-107169761D01*
X99655238Y-107217380D01*
X99369523Y-107217380D01*
X99274285Y-107169761D01*
X99226666Y-107122142D01*
%TO.C,TVSDIODE*%
X83463238Y-109688380D02*
X84034666Y-109688380D01*
X83748952Y-110688380D02*
X83748952Y-109688380D01*
X84225142Y-109688380D02*
X84558476Y-110688380D01*
X84891809Y-109688380D01*
X85177523Y-110640761D02*
X85320380Y-110688380D01*
X85558476Y-110688380D01*
X85653714Y-110640761D01*
X85701333Y-110593142D01*
X85748952Y-110497904D01*
X85748952Y-110402666D01*
X85701333Y-110307428D01*
X85653714Y-110259809D01*
X85558476Y-110212190D01*
X85368000Y-110164571D01*
X85272761Y-110116952D01*
X85225142Y-110069333D01*
X85177523Y-109974095D01*
X85177523Y-109878857D01*
X85225142Y-109783619D01*
X85272761Y-109736000D01*
X85368000Y-109688380D01*
X85606095Y-109688380D01*
X85748952Y-109736000D01*
X86177523Y-110688380D02*
X86177523Y-109688380D01*
X86415619Y-109688380D01*
X86558476Y-109736000D01*
X86653714Y-109831238D01*
X86701333Y-109926476D01*
X86748952Y-110116952D01*
X86748952Y-110259809D01*
X86701333Y-110450285D01*
X86653714Y-110545523D01*
X86558476Y-110640761D01*
X86415619Y-110688380D01*
X86177523Y-110688380D01*
X87177523Y-110688380D02*
X87177523Y-109688380D01*
X87844190Y-109688380D02*
X88034666Y-109688380D01*
X88129904Y-109736000D01*
X88225142Y-109831238D01*
X88272761Y-110021714D01*
X88272761Y-110355047D01*
X88225142Y-110545523D01*
X88129904Y-110640761D01*
X88034666Y-110688380D01*
X87844190Y-110688380D01*
X87748952Y-110640761D01*
X87653714Y-110545523D01*
X87606095Y-110355047D01*
X87606095Y-110021714D01*
X87653714Y-109831238D01*
X87748952Y-109736000D01*
X87844190Y-109688380D01*
X88701333Y-110688380D02*
X88701333Y-109688380D01*
X88939428Y-109688380D01*
X89082285Y-109736000D01*
X89177523Y-109831238D01*
X89225142Y-109926476D01*
X89272761Y-110116952D01*
X89272761Y-110259809D01*
X89225142Y-110450285D01*
X89177523Y-110545523D01*
X89082285Y-110640761D01*
X88939428Y-110688380D01*
X88701333Y-110688380D01*
X89701333Y-110164571D02*
X90034666Y-110164571D01*
X90177523Y-110688380D02*
X89701333Y-110688380D01*
X89701333Y-109688380D01*
X90177523Y-109688380D01*
%TO.C,J1*%
X54911666Y-123150380D02*
X54911666Y-123864666D01*
X54864047Y-124007523D01*
X54768809Y-124102761D01*
X54625952Y-124150380D01*
X54530714Y-124150380D01*
X55911666Y-124150380D02*
X55340238Y-124150380D01*
X55625952Y-124150380D02*
X55625952Y-123150380D01*
X55530714Y-123293238D01*
X55435476Y-123388476D01*
X55340238Y-123436095D01*
%TO.C,L1*%
X70302380Y-112561666D02*
X70302380Y-113037857D01*
X69302380Y-113037857D01*
X70302380Y-111704523D02*
X70302380Y-112275952D01*
X70302380Y-111990238D02*
X69302380Y-111990238D01*
X69445238Y-112085476D01*
X69540476Y-112180714D01*
X69588095Y-112275952D01*
%TO.C,TERM*%
X90138476Y-116038380D02*
X90709904Y-116038380D01*
X90424190Y-117038380D02*
X90424190Y-116038380D01*
X91043238Y-116514571D02*
X91376571Y-116514571D01*
X91519428Y-117038380D02*
X91043238Y-117038380D01*
X91043238Y-116038380D01*
X91519428Y-116038380D01*
X92519428Y-117038380D02*
X92186095Y-116562190D01*
X91948000Y-117038380D02*
X91948000Y-116038380D01*
X92328952Y-116038380D01*
X92424190Y-116086000D01*
X92471809Y-116133619D01*
X92519428Y-116228857D01*
X92519428Y-116371714D01*
X92471809Y-116466952D01*
X92424190Y-116514571D01*
X92328952Y-116562190D01*
X91948000Y-116562190D01*
X92948000Y-117038380D02*
X92948000Y-116038380D01*
X93281333Y-116752666D01*
X93614666Y-116038380D01*
X93614666Y-117038380D01*
%TO.C,DC/DC*%
X61214285Y-107767380D02*
X61214285Y-106767380D01*
X61452380Y-106767380D01*
X61595238Y-106815000D01*
X61690476Y-106910238D01*
X61738095Y-107005476D01*
X61785714Y-107195952D01*
X61785714Y-107338809D01*
X61738095Y-107529285D01*
X61690476Y-107624523D01*
X61595238Y-107719761D01*
X61452380Y-107767380D01*
X61214285Y-107767380D01*
X62785714Y-107672142D02*
X62738095Y-107719761D01*
X62595238Y-107767380D01*
X62500000Y-107767380D01*
X62357142Y-107719761D01*
X62261904Y-107624523D01*
X62214285Y-107529285D01*
X62166666Y-107338809D01*
X62166666Y-107195952D01*
X62214285Y-107005476D01*
X62261904Y-106910238D01*
X62357142Y-106815000D01*
X62500000Y-106767380D01*
X62595238Y-106767380D01*
X62738095Y-106815000D01*
X62785714Y-106862619D01*
X63928571Y-106719761D02*
X63071428Y-108005476D01*
X64261904Y-107767380D02*
X64261904Y-106767380D01*
X64500000Y-106767380D01*
X64642857Y-106815000D01*
X64738095Y-106910238D01*
X64785714Y-107005476D01*
X64833333Y-107195952D01*
X64833333Y-107338809D01*
X64785714Y-107529285D01*
X64738095Y-107624523D01*
X64642857Y-107719761D01*
X64500000Y-107767380D01*
X64261904Y-107767380D01*
X65833333Y-107672142D02*
X65785714Y-107719761D01*
X65642857Y-107767380D01*
X65547619Y-107767380D01*
X65404761Y-107719761D01*
X65309523Y-107624523D01*
X65261904Y-107529285D01*
X65214285Y-107338809D01*
X65214285Y-107195952D01*
X65261904Y-107005476D01*
X65309523Y-106910238D01*
X65404761Y-106815000D01*
X65547619Y-106767380D01*
X65642857Y-106767380D01*
X65785714Y-106815000D01*
X65833333Y-106862619D01*
%TO.C,RECV*%
X67508571Y-102772380D02*
X67175238Y-102296190D01*
X66937142Y-102772380D02*
X66937142Y-101772380D01*
X67318095Y-101772380D01*
X67413333Y-101820000D01*
X67460952Y-101867619D01*
X67508571Y-101962857D01*
X67508571Y-102105714D01*
X67460952Y-102200952D01*
X67413333Y-102248571D01*
X67318095Y-102296190D01*
X66937142Y-102296190D01*
X67937142Y-102248571D02*
X68270476Y-102248571D01*
X68413333Y-102772380D02*
X67937142Y-102772380D01*
X67937142Y-101772380D01*
X68413333Y-101772380D01*
X69413333Y-102677142D02*
X69365714Y-102724761D01*
X69222857Y-102772380D01*
X69127619Y-102772380D01*
X68984761Y-102724761D01*
X68889523Y-102629523D01*
X68841904Y-102534285D01*
X68794285Y-102343809D01*
X68794285Y-102200952D01*
X68841904Y-102010476D01*
X68889523Y-101915238D01*
X68984761Y-101820000D01*
X69127619Y-101772380D01*
X69222857Y-101772380D01*
X69365714Y-101820000D01*
X69413333Y-101867619D01*
X69699047Y-101772380D02*
X70032380Y-102772380D01*
X70365714Y-101772380D01*
%TO.C,SEND*%
X61230095Y-123848761D02*
X61372952Y-123896380D01*
X61611047Y-123896380D01*
X61706285Y-123848761D01*
X61753904Y-123801142D01*
X61801523Y-123705904D01*
X61801523Y-123610666D01*
X61753904Y-123515428D01*
X61706285Y-123467809D01*
X61611047Y-123420190D01*
X61420571Y-123372571D01*
X61325333Y-123324952D01*
X61277714Y-123277333D01*
X61230095Y-123182095D01*
X61230095Y-123086857D01*
X61277714Y-122991619D01*
X61325333Y-122944000D01*
X61420571Y-122896380D01*
X61658666Y-122896380D01*
X61801523Y-122944000D01*
X62230095Y-123372571D02*
X62563428Y-123372571D01*
X62706285Y-123896380D02*
X62230095Y-123896380D01*
X62230095Y-122896380D01*
X62706285Y-122896380D01*
X63134857Y-123896380D02*
X63134857Y-122896380D01*
X63706285Y-123896380D01*
X63706285Y-122896380D01*
X64182476Y-123896380D02*
X64182476Y-122896380D01*
X64420571Y-122896380D01*
X64563428Y-122944000D01*
X64658666Y-123039238D01*
X64706285Y-123134476D01*
X64753904Y-123324952D01*
X64753904Y-123467809D01*
X64706285Y-123658285D01*
X64658666Y-123753523D01*
X64563428Y-123848761D01*
X64420571Y-123896380D01*
X64182476Y-123896380D01*
%TO.C,TEENSYLC*%
X75876590Y-102119180D02*
X76448019Y-102119180D01*
X76162304Y-103119180D02*
X76162304Y-102119180D01*
X76781352Y-102595371D02*
X77114685Y-102595371D01*
X77257542Y-103119180D02*
X76781352Y-103119180D01*
X76781352Y-102119180D01*
X77257542Y-102119180D01*
X77686114Y-102595371D02*
X78019447Y-102595371D01*
X78162304Y-103119180D02*
X77686114Y-103119180D01*
X77686114Y-102119180D01*
X78162304Y-102119180D01*
X78590876Y-103119180D02*
X78590876Y-102119180D01*
X79162304Y-103119180D01*
X79162304Y-102119180D01*
X79590876Y-103071561D02*
X79733733Y-103119180D01*
X79971828Y-103119180D01*
X80067066Y-103071561D01*
X80114685Y-103023942D01*
X80162304Y-102928704D01*
X80162304Y-102833466D01*
X80114685Y-102738228D01*
X80067066Y-102690609D01*
X79971828Y-102642990D01*
X79781352Y-102595371D01*
X79686114Y-102547752D01*
X79638495Y-102500133D01*
X79590876Y-102404895D01*
X79590876Y-102309657D01*
X79638495Y-102214419D01*
X79686114Y-102166800D01*
X79781352Y-102119180D01*
X80019447Y-102119180D01*
X80162304Y-102166800D01*
X80781352Y-102642990D02*
X80781352Y-103119180D01*
X80448019Y-102119180D02*
X80781352Y-102642990D01*
X81114685Y-102119180D01*
X81924209Y-103119180D02*
X81448019Y-103119180D01*
X81448019Y-102119180D01*
X82828971Y-103023942D02*
X82781352Y-103071561D01*
X82638495Y-103119180D01*
X82543257Y-103119180D01*
X82400400Y-103071561D01*
X82305161Y-102976323D01*
X82257542Y-102881085D01*
X82209923Y-102690609D01*
X82209923Y-102547752D01*
X82257542Y-102357276D01*
X82305161Y-102262038D01*
X82400400Y-102166800D01*
X82543257Y-102119180D01*
X82638495Y-102119180D01*
X82781352Y-102166800D01*
X82828971Y-102214419D01*
%TO.C,RS485*%
X97464761Y-117517380D02*
X97131428Y-117041190D01*
X96893333Y-117517380D02*
X96893333Y-116517380D01*
X97274285Y-116517380D01*
X97369523Y-116565000D01*
X97417142Y-116612619D01*
X97464761Y-116707857D01*
X97464761Y-116850714D01*
X97417142Y-116945952D01*
X97369523Y-116993571D01*
X97274285Y-117041190D01*
X96893333Y-117041190D01*
X97845714Y-117469761D02*
X97988571Y-117517380D01*
X98226666Y-117517380D01*
X98321904Y-117469761D01*
X98369523Y-117422142D01*
X98417142Y-117326904D01*
X98417142Y-117231666D01*
X98369523Y-117136428D01*
X98321904Y-117088809D01*
X98226666Y-117041190D01*
X98036190Y-116993571D01*
X97940952Y-116945952D01*
X97893333Y-116898333D01*
X97845714Y-116803095D01*
X97845714Y-116707857D01*
X97893333Y-116612619D01*
X97940952Y-116565000D01*
X98036190Y-116517380D01*
X98274285Y-116517380D01*
X98417142Y-116565000D01*
X99274285Y-116850714D02*
X99274285Y-117517380D01*
X99036190Y-116469761D02*
X98798095Y-117184047D01*
X99417142Y-117184047D01*
X99940952Y-116945952D02*
X99845714Y-116898333D01*
X99798095Y-116850714D01*
X99750476Y-116755476D01*
X99750476Y-116707857D01*
X99798095Y-116612619D01*
X99845714Y-116565000D01*
X99940952Y-116517380D01*
X100131428Y-116517380D01*
X100226666Y-116565000D01*
X100274285Y-116612619D01*
X100321904Y-116707857D01*
X100321904Y-116755476D01*
X100274285Y-116850714D01*
X100226666Y-116898333D01*
X100131428Y-116945952D01*
X99940952Y-116945952D01*
X99845714Y-116993571D01*
X99798095Y-117041190D01*
X99750476Y-117136428D01*
X99750476Y-117326904D01*
X99798095Y-117422142D01*
X99845714Y-117469761D01*
X99940952Y-117517380D01*
X100131428Y-117517380D01*
X100226666Y-117469761D01*
X100274285Y-117422142D01*
X100321904Y-117326904D01*
X100321904Y-117136428D01*
X100274285Y-117041190D01*
X100226666Y-116993571D01*
X100131428Y-116945952D01*
X101226666Y-116517380D02*
X100750476Y-116517380D01*
X100702857Y-116993571D01*
X100750476Y-116945952D01*
X100845714Y-116898333D01*
X101083809Y-116898333D01*
X101179047Y-116945952D01*
X101226666Y-116993571D01*
X101274285Y-117088809D01*
X101274285Y-117326904D01*
X101226666Y-117422142D01*
X101179047Y-117469761D01*
X101083809Y-117517380D01*
X100845714Y-117517380D01*
X100750476Y-117469761D01*
X100702857Y-117422142D01*
%TD*%
M02*
