M48
; DRILL file {KiCad (5.1.6)-1} date 04/26/22 10:22:17
; FORMAT={-:-/ absolute / inch / decimal}
; #@! TF.CreationDate,2022-04-26T10:22:17-04:00
; #@! TF.GenerationSoftware,Kicad,Pcbnew,(5.1.6)-1
; #@! TF.FileFunction,Plated,1,2,PTH
FMAT,2
INCH
T1C0.0157
T2C0.0300
T3C0.0394
T4C0.0433
T5C0.0598
%
G90
G05
T1
X2.285Y-4.735
X2.957Y-4.262
X3.54Y-4.45
X3.725Y-4.32
X3.805Y-4.635
T2
X4.6Y-4.75
X4.6Y-4.85
X4.7Y-4.15
X4.7Y-4.75
X4.7Y-4.85
X4.8Y-4.15
X4.8Y-4.75
X4.8Y-4.85
X4.9Y-4.15
X4.9Y-4.75
X4.9Y-4.85
X5.0Y-4.15
X5.0Y-4.75
X5.0Y-4.85
X5.1Y-4.75
X5.1Y-4.85
T3
X2.475Y-4.325
X2.475Y-4.425
X2.475Y-4.525
T4
X2.9Y-4.125
X2.9Y-4.725
X3.0Y-4.125
X3.0Y-4.725
X3.1Y-4.125
X3.1Y-4.725
X3.2Y-4.125
X3.2Y-4.725
X3.3Y-4.125
X3.3Y-4.725
X3.4Y-4.125
X3.4Y-4.725
X3.5Y-4.125
X3.5Y-4.725
X3.6Y-4.125
X3.6Y-4.725
X3.7Y-4.125
X3.7Y-4.725
X3.8Y-4.125
X3.8Y-4.725
X3.9Y-4.125
X3.9Y-4.725
X4.0Y-4.125
X4.0Y-4.725
X4.1Y-4.125
X4.1Y-4.725
X4.2Y-4.125
X4.2Y-4.725
T5
X2.175Y-4.125
X2.175Y-4.325
X2.175Y-4.525
X2.175Y-4.725
T0
M30
