%TF.GenerationSoftware,KiCad,Pcbnew,(5.1.6)-1*%
%TF.CreationDate,2022-04-26T10:23:00-04:00*%
%TF.ProjectId,rs485_5vreg_tray_short_v2,72733438-355f-4357-9672-65675f747261,v2*%
%TF.SameCoordinates,Original*%
%TF.FileFunction,Soldermask,Bot*%
%TF.FilePolarity,Negative*%
%FSLAX46Y46*%
G04 Gerber Fmt 4.6, Leading zero omitted, Abs format (unit mm)*
G04 Created by KiCad (PCBNEW (5.1.6)-1) date 2022-04-26 10:23:00*
%MOMM*%
%LPD*%
G01*
G04 APERTURE LIST*
%ADD10C,1.624000*%
%ADD11C,3.300000*%
%ADD12C,3.100000*%
%ADD13R,3.100000X3.100000*%
%ADD14R,2.100000X2.100000*%
%ADD15C,2.100000*%
%ADD16C,1.700000*%
%ADD17R,1.700000X1.700000*%
G04 APERTURE END LIST*
D10*
%TO.C,BNO055 IMU*%
X116840000Y-123190000D03*
X119380000Y-123190000D03*
X121920000Y-123190000D03*
X124460000Y-123190000D03*
X127000000Y-123190000D03*
X129540000Y-123190000D03*
X119380000Y-105410000D03*
X121920000Y-105410000D03*
X124460000Y-105410000D03*
X127000000Y-105410000D03*
X116840000Y-120650000D03*
X119380000Y-120650000D03*
X121920000Y-120650000D03*
X124460000Y-120650000D03*
X127000000Y-120650000D03*
X129540000Y-120650000D03*
%TD*%
D11*
%TO.C,REF\u002A\u002A*%
X132715000Y-113030000D03*
%TD*%
%TO.C,REF\u002A\u002A*%
X113665000Y-113030000D03*
%TD*%
D12*
%TO.C,J1*%
X55245000Y-120015000D03*
D13*
X55245000Y-104775000D03*
D12*
X55245000Y-114935000D03*
X55245000Y-109855000D03*
%TD*%
D14*
%TO.C,DC/DC*%
X62865000Y-109855000D03*
D15*
X62865000Y-112395000D03*
X62865000Y-114935000D03*
%TD*%
D16*
%TO.C,TEENSYLC*%
X106680000Y-104775000D03*
X106680000Y-120015000D03*
X104140000Y-104775000D03*
X101600000Y-104775000D03*
X99060000Y-104775000D03*
X96520000Y-104775000D03*
X93980000Y-104775000D03*
X91440000Y-104775000D03*
X88900000Y-104775000D03*
X86360000Y-104775000D03*
X83820000Y-104775000D03*
X81280000Y-104775000D03*
X78740000Y-104775000D03*
X76200000Y-104775000D03*
X73660000Y-104775000D03*
X104140000Y-120015000D03*
X101600000Y-120015000D03*
X99060000Y-120015000D03*
X96520000Y-120015000D03*
X93980000Y-120015000D03*
X91440000Y-120015000D03*
X88900000Y-120015000D03*
X86360000Y-120015000D03*
X83820000Y-120015000D03*
X81280000Y-120015000D03*
X78740000Y-120015000D03*
X76200000Y-120015000D03*
D17*
X73660000Y-120015000D03*
%TD*%
M02*
