%TF.GenerationSoftware,KiCad,Pcbnew,(5.1.6)-1*%
%TF.CreationDate,2022-04-26T10:23:00-04:00*%
%TF.ProjectId,rs485_5vreg_tray_short_v2,72733438-355f-4357-9672-65675f747261,v2*%
%TF.SameCoordinates,Original*%
%TF.FileFunction,Soldermask,Top*%
%TF.FilePolarity,Negative*%
%FSLAX46Y46*%
G04 Gerber Fmt 4.6, Leading zero omitted, Abs format (unit mm)*
G04 Created by KiCad (PCBNEW (5.1.6)-1) date 2022-04-26 10:23:00*
%MOMM*%
%LPD*%
G01*
G04 APERTURE LIST*
%ADD10C,1.624000*%
%ADD11C,3.300000*%
%ADD12R,1.440000X0.740000*%
%ADD13C,3.100000*%
%ADD14R,3.100000X3.100000*%
%ADD15R,2.100000X2.100000*%
%ADD16C,2.100000*%
%ADD17C,1.700000*%
%ADD18R,1.700000X1.700000*%
G04 APERTURE END LIST*
D10*
%TO.C,BNO055 IMU*%
X116840000Y-123190000D03*
X119380000Y-123190000D03*
X121920000Y-123190000D03*
X124460000Y-123190000D03*
X127000000Y-123190000D03*
X129540000Y-123190000D03*
X119380000Y-105410000D03*
X121920000Y-105410000D03*
X124460000Y-105410000D03*
X127000000Y-105410000D03*
X116840000Y-120650000D03*
X119380000Y-120650000D03*
X121920000Y-120650000D03*
X124460000Y-120650000D03*
X127000000Y-120650000D03*
X129540000Y-120650000D03*
%TD*%
D11*
%TO.C,REF\u002A\u002A*%
X132715000Y-113030000D03*
%TD*%
%TO.C,REF\u002A\u002A*%
X113665000Y-113030000D03*
%TD*%
%TO.C,C1*%
G36*
G01*
X74630000Y-111145000D02*
X74630000Y-109835000D01*
G75*
G02*
X74900000Y-109565000I270000J0D01*
G01*
X75710000Y-109565000D01*
G75*
G02*
X75980000Y-109835000I0J-270000D01*
G01*
X75980000Y-111145000D01*
G75*
G02*
X75710000Y-111415000I-270000J0D01*
G01*
X74900000Y-111415000D01*
G75*
G02*
X74630000Y-111145000I0J270000D01*
G01*
G37*
G36*
G01*
X77430000Y-111145000D02*
X77430000Y-109835000D01*
G75*
G02*
X77700000Y-109565000I270000J0D01*
G01*
X78510000Y-109565000D01*
G75*
G02*
X78780000Y-109835000I0J-270000D01*
G01*
X78780000Y-111145000D01*
G75*
G02*
X78510000Y-111415000I-270000J0D01*
G01*
X77700000Y-111415000D01*
G75*
G02*
X77430000Y-111145000I0J270000D01*
G01*
G37*
%TD*%
%TO.C,C2*%
G36*
G01*
X77560000Y-114955000D02*
X77560000Y-113645000D01*
G75*
G02*
X77830000Y-113375000I270000J0D01*
G01*
X78640000Y-113375000D01*
G75*
G02*
X78910000Y-113645000I0J-270000D01*
G01*
X78910000Y-114955000D01*
G75*
G02*
X78640000Y-115225000I-270000J0D01*
G01*
X77830000Y-115225000D01*
G75*
G02*
X77560000Y-114955000I0J270000D01*
G01*
G37*
G36*
G01*
X74760000Y-114955000D02*
X74760000Y-113645000D01*
G75*
G02*
X75030000Y-113375000I270000J0D01*
G01*
X75840000Y-113375000D01*
G75*
G02*
X76110000Y-113645000I0J-270000D01*
G01*
X76110000Y-114955000D01*
G75*
G02*
X75840000Y-115225000I-270000J0D01*
G01*
X75030000Y-115225000D01*
G75*
G02*
X74760000Y-114955000I0J270000D01*
G01*
G37*
%TD*%
%TO.C,C3*%
G36*
G01*
X96985000Y-109240000D02*
X96985000Y-107930000D01*
G75*
G02*
X97255000Y-107660000I270000J0D01*
G01*
X98065000Y-107660000D01*
G75*
G02*
X98335000Y-107930000I0J-270000D01*
G01*
X98335000Y-109240000D01*
G75*
G02*
X98065000Y-109510000I-270000J0D01*
G01*
X97255000Y-109510000D01*
G75*
G02*
X96985000Y-109240000I0J270000D01*
G01*
G37*
G36*
G01*
X99785000Y-109240000D02*
X99785000Y-107930000D01*
G75*
G02*
X100055000Y-107660000I270000J0D01*
G01*
X100865000Y-107660000D01*
G75*
G02*
X101135000Y-107930000I0J-270000D01*
G01*
X101135000Y-109240000D01*
G75*
G02*
X100865000Y-109510000I-270000J0D01*
G01*
X100055000Y-109510000D01*
G75*
G02*
X99785000Y-109240000I0J270000D01*
G01*
G37*
%TD*%
D12*
%TO.C,TVSDIODE*%
X88265000Y-113030000D03*
X86165000Y-113980000D03*
X86165000Y-112080000D03*
%TD*%
D13*
%TO.C,J1*%
X55245000Y-120015000D03*
D14*
X55245000Y-104775000D03*
D13*
X55245000Y-114935000D03*
X55245000Y-109855000D03*
%TD*%
%TO.C,L1*%
G36*
G01*
X72410000Y-114470000D02*
X71100000Y-114470000D01*
G75*
G02*
X70830000Y-114200000I0J270000D01*
G01*
X70830000Y-113390000D01*
G75*
G02*
X71100000Y-113120000I270000J0D01*
G01*
X72410000Y-113120000D01*
G75*
G02*
X72680000Y-113390000I0J-270000D01*
G01*
X72680000Y-114200000D01*
G75*
G02*
X72410000Y-114470000I-270000J0D01*
G01*
G37*
G36*
G01*
X72410000Y-111670000D02*
X71100000Y-111670000D01*
G75*
G02*
X70830000Y-111400000I0J270000D01*
G01*
X70830000Y-110590000D01*
G75*
G02*
X71100000Y-110320000I270000J0D01*
G01*
X72410000Y-110320000D01*
G75*
G02*
X72680000Y-110590000I0J-270000D01*
G01*
X72680000Y-111400000D01*
G75*
G02*
X72410000Y-111670000I-270000J0D01*
G01*
G37*
%TD*%
%TO.C,R1*%
G36*
G01*
X64940000Y-103485000D02*
X64940000Y-104795000D01*
G75*
G02*
X64670000Y-105065000I-270000J0D01*
G01*
X63860000Y-105065000D01*
G75*
G02*
X63590000Y-104795000I0J270000D01*
G01*
X63590000Y-103485000D01*
G75*
G02*
X63860000Y-103215000I270000J0D01*
G01*
X64670000Y-103215000D01*
G75*
G02*
X64940000Y-103485000I0J-270000D01*
G01*
G37*
G36*
G01*
X62140000Y-103485000D02*
X62140000Y-104795000D01*
G75*
G02*
X61870000Y-105065000I-270000J0D01*
G01*
X61060000Y-105065000D01*
G75*
G02*
X60790000Y-104795000I0J270000D01*
G01*
X60790000Y-103485000D01*
G75*
G02*
X61060000Y-103215000I270000J0D01*
G01*
X61870000Y-103215000D01*
G75*
G02*
X62140000Y-103485000I0J-270000D01*
G01*
G37*
%TD*%
%TO.C,R2*%
G36*
G01*
X69305000Y-121940000D02*
X69305000Y-120630000D01*
G75*
G02*
X69575000Y-120360000I270000J0D01*
G01*
X70385000Y-120360000D01*
G75*
G02*
X70655000Y-120630000I0J-270000D01*
G01*
X70655000Y-121940000D01*
G75*
G02*
X70385000Y-122210000I-270000J0D01*
G01*
X69575000Y-122210000D01*
G75*
G02*
X69305000Y-121940000I0J270000D01*
G01*
G37*
G36*
G01*
X66505000Y-121940000D02*
X66505000Y-120630000D01*
G75*
G02*
X66775000Y-120360000I270000J0D01*
G01*
X67585000Y-120360000D01*
G75*
G02*
X67855000Y-120630000I0J-270000D01*
G01*
X67855000Y-121940000D01*
G75*
G02*
X67585000Y-122210000I-270000J0D01*
G01*
X66775000Y-122210000D01*
G75*
G02*
X66505000Y-121940000I0J270000D01*
G01*
G37*
%TD*%
%TO.C,TERM*%
G36*
G01*
X91420000Y-110955000D02*
X92730000Y-110955000D01*
G75*
G02*
X93000000Y-111225000I0J-270000D01*
G01*
X93000000Y-112035000D01*
G75*
G02*
X92730000Y-112305000I-270000J0D01*
G01*
X91420000Y-112305000D01*
G75*
G02*
X91150000Y-112035000I0J270000D01*
G01*
X91150000Y-111225000D01*
G75*
G02*
X91420000Y-110955000I270000J0D01*
G01*
G37*
G36*
G01*
X91420000Y-113755000D02*
X92730000Y-113755000D01*
G75*
G02*
X93000000Y-114025000I0J-270000D01*
G01*
X93000000Y-114835000D01*
G75*
G02*
X92730000Y-115105000I-270000J0D01*
G01*
X91420000Y-115105000D01*
G75*
G02*
X91150000Y-114835000I0J270000D01*
G01*
X91150000Y-114025000D01*
G75*
G02*
X91420000Y-113755000I270000J0D01*
G01*
G37*
%TD*%
D15*
%TO.C,DC/DC*%
X62865000Y-109855000D03*
D16*
X62865000Y-112395000D03*
X62865000Y-114935000D03*
%TD*%
%TO.C,RECV*%
G36*
G01*
X66505000Y-104795000D02*
X66505000Y-103485000D01*
G75*
G02*
X66775000Y-103215000I270000J0D01*
G01*
X67585000Y-103215000D01*
G75*
G02*
X67855000Y-103485000I0J-270000D01*
G01*
X67855000Y-104795000D01*
G75*
G02*
X67585000Y-105065000I-270000J0D01*
G01*
X66775000Y-105065000D01*
G75*
G02*
X66505000Y-104795000I0J270000D01*
G01*
G37*
G36*
G01*
X69305000Y-104795000D02*
X69305000Y-103485000D01*
G75*
G02*
X69575000Y-103215000I270000J0D01*
G01*
X70385000Y-103215000D01*
G75*
G02*
X70655000Y-103485000I0J-270000D01*
G01*
X70655000Y-104795000D01*
G75*
G02*
X70385000Y-105065000I-270000J0D01*
G01*
X69575000Y-105065000D01*
G75*
G02*
X69305000Y-104795000I0J270000D01*
G01*
G37*
%TD*%
%TO.C,SEND*%
G36*
G01*
X63590000Y-121940000D02*
X63590000Y-120630000D01*
G75*
G02*
X63860000Y-120360000I270000J0D01*
G01*
X64670000Y-120360000D01*
G75*
G02*
X64940000Y-120630000I0J-270000D01*
G01*
X64940000Y-121940000D01*
G75*
G02*
X64670000Y-122210000I-270000J0D01*
G01*
X63860000Y-122210000D01*
G75*
G02*
X63590000Y-121940000I0J270000D01*
G01*
G37*
G36*
G01*
X60790000Y-121940000D02*
X60790000Y-120630000D01*
G75*
G02*
X61060000Y-120360000I270000J0D01*
G01*
X61870000Y-120360000D01*
G75*
G02*
X62140000Y-120630000I0J-270000D01*
G01*
X62140000Y-121940000D01*
G75*
G02*
X61870000Y-122210000I-270000J0D01*
G01*
X61060000Y-122210000D01*
G75*
G02*
X60790000Y-121940000I0J270000D01*
G01*
G37*
%TD*%
D17*
%TO.C,TEENSYLC*%
X106680000Y-104775000D03*
X106680000Y-120015000D03*
X104140000Y-104775000D03*
X101600000Y-104775000D03*
X99060000Y-104775000D03*
X96520000Y-104775000D03*
X93980000Y-104775000D03*
X91440000Y-104775000D03*
X88900000Y-104775000D03*
X86360000Y-104775000D03*
X83820000Y-104775000D03*
X81280000Y-104775000D03*
X78740000Y-104775000D03*
X76200000Y-104775000D03*
X73660000Y-104775000D03*
X104140000Y-120015000D03*
X101600000Y-120015000D03*
X99060000Y-120015000D03*
X96520000Y-120015000D03*
X93980000Y-120015000D03*
X91440000Y-120015000D03*
X88900000Y-120015000D03*
X86360000Y-120015000D03*
X83820000Y-120015000D03*
X81280000Y-120015000D03*
X78740000Y-120015000D03*
X76200000Y-120015000D03*
D18*
X73660000Y-120015000D03*
%TD*%
%TO.C,RS485*%
G36*
G01*
X102560000Y-115395000D02*
X102560000Y-115745000D01*
G75*
G02*
X102385000Y-115920000I-175000J0D01*
G01*
X100685000Y-115920000D01*
G75*
G02*
X100510000Y-115745000I0J175000D01*
G01*
X100510000Y-115395000D01*
G75*
G02*
X100685000Y-115220000I175000J0D01*
G01*
X102385000Y-115220000D01*
G75*
G02*
X102560000Y-115395000I0J-175000D01*
G01*
G37*
G36*
G01*
X102560000Y-114125000D02*
X102560000Y-114475000D01*
G75*
G02*
X102385000Y-114650000I-175000J0D01*
G01*
X100685000Y-114650000D01*
G75*
G02*
X100510000Y-114475000I0J175000D01*
G01*
X100510000Y-114125000D01*
G75*
G02*
X100685000Y-113950000I175000J0D01*
G01*
X102385000Y-113950000D01*
G75*
G02*
X102560000Y-114125000I0J-175000D01*
G01*
G37*
G36*
G01*
X102560000Y-112855000D02*
X102560000Y-113205000D01*
G75*
G02*
X102385000Y-113380000I-175000J0D01*
G01*
X100685000Y-113380000D01*
G75*
G02*
X100510000Y-113205000I0J175000D01*
G01*
X100510000Y-112855000D01*
G75*
G02*
X100685000Y-112680000I175000J0D01*
G01*
X102385000Y-112680000D01*
G75*
G02*
X102560000Y-112855000I0J-175000D01*
G01*
G37*
G36*
G01*
X102560000Y-111585000D02*
X102560000Y-111935000D01*
G75*
G02*
X102385000Y-112110000I-175000J0D01*
G01*
X100685000Y-112110000D01*
G75*
G02*
X100510000Y-111935000I0J175000D01*
G01*
X100510000Y-111585000D01*
G75*
G02*
X100685000Y-111410000I175000J0D01*
G01*
X102385000Y-111410000D01*
G75*
G02*
X102560000Y-111585000I0J-175000D01*
G01*
G37*
G36*
G01*
X97610000Y-111585000D02*
X97610000Y-111935000D01*
G75*
G02*
X97435000Y-112110000I-175000J0D01*
G01*
X95735000Y-112110000D01*
G75*
G02*
X95560000Y-111935000I0J175000D01*
G01*
X95560000Y-111585000D01*
G75*
G02*
X95735000Y-111410000I175000J0D01*
G01*
X97435000Y-111410000D01*
G75*
G02*
X97610000Y-111585000I0J-175000D01*
G01*
G37*
G36*
G01*
X97610000Y-112855000D02*
X97610000Y-113205000D01*
G75*
G02*
X97435000Y-113380000I-175000J0D01*
G01*
X95735000Y-113380000D01*
G75*
G02*
X95560000Y-113205000I0J175000D01*
G01*
X95560000Y-112855000D01*
G75*
G02*
X95735000Y-112680000I175000J0D01*
G01*
X97435000Y-112680000D01*
G75*
G02*
X97610000Y-112855000I0J-175000D01*
G01*
G37*
G36*
G01*
X97610000Y-114125000D02*
X97610000Y-114475000D01*
G75*
G02*
X97435000Y-114650000I-175000J0D01*
G01*
X95735000Y-114650000D01*
G75*
G02*
X95560000Y-114475000I0J175000D01*
G01*
X95560000Y-114125000D01*
G75*
G02*
X95735000Y-113950000I175000J0D01*
G01*
X97435000Y-113950000D01*
G75*
G02*
X97610000Y-114125000I0J-175000D01*
G01*
G37*
G36*
G01*
X97610000Y-115395000D02*
X97610000Y-115745000D01*
G75*
G02*
X97435000Y-115920000I-175000J0D01*
G01*
X95735000Y-115920000D01*
G75*
G02*
X95560000Y-115745000I0J175000D01*
G01*
X95560000Y-115395000D01*
G75*
G02*
X95735000Y-115220000I175000J0D01*
G01*
X97435000Y-115220000D01*
G75*
G02*
X97610000Y-115395000I0J-175000D01*
G01*
G37*
%TD*%
M02*
